<svg width="100" height="25" xmlns="http://www.w3.org/2000/svg">

 <g>
  <title>Layer 1</title>
  <path class="a" d="m14.7919,11.86a5,5 0 0 1 2.35,-4.15a5,5 0 0 0 -4,-2.16c-1.68,-0.17 -3.3,1 -4.16,1s-2.19,-1 -3.61,-1a5.31,5.31 0 0 0 -4.46,2.78c-1.92,3.35 -0.49,8.27 1.36,10.97c0.93,1.33 2,2.81 3.43,2.76s1.9,-0.89 3.58,-0.89s2.14,0.89 3.59,0.85s2.42,-1.33 3.32,-2.66a11.17,11.17 0 0 0 1.52,-3.1a4.77,4.77 0 0 1 -2.92,-4.4z" fill="#2a5ca6" id="svg_1"/>
  <path class="a" d="m12.0619,3.77a4.85,4.85 0 0 0 1.11,-3.49a5,5 0 0 0 -3.18,1.66a4.66,4.66 0 0 0 -1.17,3.36a4.08,4.08 0 0 0 3.24,-1.53z" fill="#2a5ca6" id="svg_2"/>
  <path class="a" d="m32.3219,18.7l-4.73,0l-1.14,3.36l-2,0l4.48,-12.42l2.06,0l4.49,12.42l-2,0l-1.16,-3.36zm-4.24,-1.55l3.75,0l-1.84,-5.44l0,0l-1.91,5.44z" fill="#2a5ca6" id="svg_3"/>
  <path class="a" d="m45.1819,17.53c0,2.82 -1.51,4.62 -3.78,4.62a3.06,3.06 0 0 1 -2.85,-1.58l0,0l0,4.48l-1.9,0l0,-12.05l1.8,0l0,1.5l0,0a3.23,3.23 0 0 1 2.89,-1.6c2.32,0.01 3.84,1.83 3.84,4.63zm-1.91,0c0,-1.83 -1,-3 -2.39,-3s-2.38,1.24 -2.38,3s1,3 2.38,3s2.39,-1.15 2.39,-3z" fill="#2a5ca6" id="svg_4"/>
  <path class="a" d="m55.1419,17.53c0,2.82 -1.5,4.62 -3.78,4.62a3,3 0 0 1 -2.84,-1.58l-0.05,0l0,4.48l-1.86,0l0,-12.05l1.8,0l0,1.5l0,0a3.21,3.21 0 0 1 2.88,-1.6c2.34,0.01 3.85,1.83 3.85,4.63zm-1.91,0c0,-1.83 -0.94,-3 -2.39,-3s-2.37,1.24 -2.37,3s1,3 2.37,3s2.39,-1.2 2.39,-3z" fill="#2a5ca6" id="svg_5"/>
  <path class="a" d="m61.7319,18.6c0.14,1.23 1.33,2 3,2s2.69,-0.81 2.69,-1.92c0,-1 -0.68,-1.54 -2.29,-1.94l-1.64,-0.34c-2.28,-0.55 -3.34,-1.62 -3.34,-3.35c0,-2.14 1.87,-3.62 4.52,-3.62s4.43,1.48 4.49,3.62l-1.88,0c-0.11,-1.24 -1.14,-2 -2.63,-2s-2.53,0.76 -2.53,1.86c0,0.88 0.66,1.39 2.26,1.79l1.37,0.34c2.55,0.6 3.6,1.62 3.6,3.44c0,2.32 -1.85,3.78 -4.79,3.78c-2.75,0 -4.61,-1.42 -4.73,-3.67l1.9,0.01z" fill="#2a5ca6" id="svg_6"/>
  <path class="a" d="m73.3619,10.86l0,2.14l1.73,0l0,1.47l-1.73,0l0,5c0,0.77 0.35,1.13 1.11,1.13a4.26,4.26 0 0 0 0.61,0l0,1.4a4.49,4.49 0 0 1 -1,0.09c-1.84,0 -2.55,-0.69 -2.55,-2.44l0,-5.17l-1.35,0l0,-1.48l1.32,0l0,-2.14l1.86,0z" fill="#2a5ca6" id="svg_7"/>
  <path class="a" d="m76.0819,17.53c0,-2.85 1.68,-4.64 4.3,-4.64s4.29,1.79 4.29,4.64s-1.68,4.64 -4.29,4.64s-4.3,-1.78 -4.3,-4.64zm6.7,0c0,-2 -0.9,-3.1 -2.4,-3.1s-2.39,1.16 -2.39,3.1s0.89,3.11 2.4,3.11s2.4,-1.15 2.4,-3.11l-0.01,0z" fill="#2a5ca6" id="svg_8"/>
  <path class="a" d="m86.2019,13l1.79,0l0,1.54l0,0a2.16,2.16 0 0 1 2.18,-1.64a2.65,2.65 0 0 1 0.63,0.07l0,1.74a2.6,2.6 0 0 0 -0.83,-0.11a1.87,1.87 0 0 0 -2,1.79a2.81,2.81 0 0 0 0,0.29l0,5.37l-1.77,0l0,-9.05z" fill="#2a5ca6" id="svg_9"/>
  <path class="a" d="m99.4019,19.4c-0.25,1.64 -1.85,2.77 -3.9,2.77c-2.63,0 -4.26,-1.76 -4.26,-4.59s1.64,-4.69 4.19,-4.69s4.08,1.72 4.08,4.47l0,0.64l-6.4,0l0,0.11a2.37,2.37 0 0 0 2.14,2.56l0.3,0a2,2 0 0 0 2.09,-1.27l1.76,0zm-6.28,-2.7l4.53,0a2.19,2.19 0 0 0 -2.06,-2.3l-0.16,0a2.29,2.29 0 0 0 -2.31,2.28l0,0.02z" fill="#2a5ca6" id="svg_10"/>
  <path class="a" d="m27.8419,0.29a2.65,2.65 0 0 1 2.83,2.45a3,3 0 0 1 0,0.52c0,1.91 -1,3 -2.81,3l-2.17,0l0,-6l2.15,0.03zm-1.22,5.13l1.12,0a1.89,1.89 0 0 0 2,-1.76a2.55,2.55 0 0 0 0,-0.39a1.88,1.88 0 0 0 -1.61,-2.12a2.17,2.17 0 0 0 -0.36,0l-1.15,0l0,4.27z" fill="#2a5ca6" id="svg_11"/>
  <path class="a" d="m31.7019,4a2.13,2.13 0 1 1 4.29,-0.4a2.81,2.81 0 0 1 0,0.4a2.13,2.13 0 0 1 -4.25,0.41a2.8,2.8 0 0 1 -0.04,-0.41zm3.29,0c0,-1 -0.44,-1.55 -1.21,-1.55s-1.16,0.55 -1.16,1.55s0.43,1.55 1.2,1.55s1.17,-0.55 1.17,-1.55z" fill="#2a5ca6" id="svg_12"/>
  <path class="a" d="m41.5919,6.26l-0.92,0l-0.93,-3.32l-0.07,0l-0.93,3.32l-0.91,0l-1.24,-4.5l0.9,0l0.81,3.43l0.06,0l0.93,-3.43l0.85,0l0.93,3.43l0.07,0l0.85,-3.43l0.89,0l-1.29,4.5z" fill="#2a5ca6" id="svg_13"/>
  <path class="a" d="m43.8719,1.76l0.86,0l0,0.71l0.06,0a1.35,1.35 0 0 1 1.35,-0.8a1.47,1.47 0 0 1 1.57,1.33a1.82,1.82 0 0 1 0,0.33l0,2.93l-0.89,0l0,-2.69c0,-0.72 -0.32,-1.08 -1,-1.08a1,1 0 0 0 -1.08,1a0.85,0.85 0 0 0 0,0.16l0,2.61l-0.89,0l0.02,-4.5z" fill="#2a5ca6" id="svg_14"/>
  <path class="a" d="m49.1119,0l0.88,0l0,6.26l-0.89,0l0.01,-6.26z" fill="#2a5ca6" id="svg_15"/>
  <path class="a" d="m51.2419,4a2.13,2.13 0 1 1 4.24,-0.41a1.41,1.41 0 0 1 0,0.41a2.13,2.13 0 1 1 -4.24,0.41a1.41,1.41 0 0 1 0,-0.41zm3.33,0c0,-1 -0.44,-1.55 -1.21,-1.55s-1.21,0.55 -1.21,1.55s0.44,1.55 1.21,1.55s1.21,-0.55 1.21,-1.55z" fill="#2a5ca6" id="svg_16"/>
  <path class="a" d="m56.4219,5c0,-0.81 0.6,-1.28 1.67,-1.35l1.22,-0.07l0,-0.4c0,-0.47 -0.31,-0.74 -0.92,-0.74s-0.84,0.18 -0.94,0.5l-0.86,0c0.09,-0.77 0.82,-1.27 1.84,-1.27s1.77,0.56 1.77,1.51l0,3.08l-0.86,0l0,-0.63l-0.07,0a1.49,1.49 0 0 1 -1.35,0.7a1.35,1.35 0 0 1 -1.49,-1.21a0.57,0.57 0 0 1 -0.01,-0.12zm2.89,-0.39l0,-0.38l-1.1,0.07c-0.62,0 -0.9,0.25 -0.9,0.65s0.35,0.64 0.84,0.64a1.06,1.06 0 0 0 1.16,-1l0,0.02z" fill="#2a5ca6" id="svg_17"/>
  <path class="a" d="m61.3719,4c0,-1.43 0.73,-2.33 1.87,-2.33a1.5,1.5 0 0 1 1.38,0.79l0.06,0l0,-2.46l0.89,0l0,6.26l-0.85,0l0,-0.71l-0.07,0a1.55,1.55 0 0 1 -1.41,0.78c-1.15,0.01 -1.87,-0.9 -1.87,-2.33zm0.91,0c0,1 0.45,1.53 1.21,1.53s1.21,-0.53 1.21,-1.53s-0.47,-1.53 -1.21,-1.53s-1.21,0.59 -1.21,1.53z" fill="#2a5ca6" id="svg_18"/>
  <path class="a" d="m69.2519,4a2.13,2.13 0 1 1 4.25,-0.41a2.81,2.81 0 0 1 0,0.41a2.13,2.13 0 0 1 -4.25,0.41a2.8,2.8 0 0 1 0,-0.41zm3.33,0c0,-1 -0.44,-1.55 -1.21,-1.55s-1.2,0.55 -1.2,1.55s0.43,1.55 1.2,1.55s1.21,-0.55 1.21,-1.55z" fill="#2a5ca6" id="svg_19"/>
  <path class="a" d="m74.6919,1.76l0.85,0l0,0.71l0.07,0a1.35,1.35 0 0 1 1.38,-0.8a1.46,1.46 0 0 1 1.53,1.33a1.22,1.22 0 0 1 0,0.33l0,2.93l-0.89,0l0,-2.69c0,-0.72 -0.31,-1.08 -1,-1.08a1,1 0 0 0 -1.08,1a0.92,0.92 0 0 0 0,0.16l0,2.61l-0.86,0l0,-4.5z" fill="#2a5ca6" id="svg_20"/>
  <path class="a" d="m83.5319,0.64l0,1.14l1,0l0,0.75l-1,0l0,2.31c0,0.47 0.2,0.68 0.64,0.68l0.34,0l0,0.74a3.91,3.91 0 0 1 -0.48,0c-1,0 -1.39,-0.35 -1.39,-1.22l0,-2.51l-0.71,0l0,-0.75l0.71,0l0,-1.14l0.89,0z" fill="#2a5ca6" id="svg_21"/>
  <path class="a" d="m85.7219,0l0.88,0l0,2.48l0.07,0a1.42,1.42 0 0 1 1.38,-0.81a1.49,1.49 0 0 1 1.56,1.41a2.44,2.44 0 0 1 0,0.27l0,2.91l-0.89,0l0,-2.69c0,-0.72 -0.34,-1.08 -1,-1.08a1.05,1.05 0 0 0 -1.14,1l0,2.77l-0.89,0l0.03,-6.26z" fill="#2a5ca6" id="svg_22"/>
  <path class="a" d="m94.7819,5a1.84,1.84 0 0 1 -2,1.31a2,2 0 0 1 -2.1,-2a1.94,1.94 0 0 1 0,-0.34a2.07,2.07 0 0 1 1.78,-2.33l0.29,0c1.26,0 2,0.86 2,2.27l0,0.31l-3.1,0l0,0a1.2,1.2 0 0 0 1.09,1.29l0.11,0a1.06,1.06 0 0 0 1.07,-0.51l0.86,0zm-3.13,-1.41l2.28,0a1.09,1.09 0 0 0 -1,-1.16l-0.1,0a1.15,1.15 0 0 0 -1.17,1.13l0,0l-0.01,0.03z" fill="#2a5ca6" id="svg_23"/>
 </g>
</svg>