<svg width="115.85" height="27.309999999999995" xmlns="http://www.w3.org/2000/svg">
 <defs>
  <linearGradient y2="0.49706" x2="-1.56483" y1="0.49706" x1="0.81041" id="a">
   <stop stop-color="#fee000" offset="0"/>
   <stop stop-color="#fbbc0e" offset="0.42"/>
   <stop stop-color="#faa418" offset="0.78"/>
   <stop stop-color="#f99b1c" offset="1"/>
  </linearGradient>
  <linearGradient y2="1.94714" x2="-0.5012" y1="0.17885" x1="0.86211" id="b">
   <stop stop-color="#ef4547" offset="0"/>
   <stop stop-color="#c6186d" offset="1"/>
  </linearGradient>
  <linearGradient y2="0.48984" x2="0.60612" y1="-0.95431" x1="-0.50719" id="c">
   <stop stop-color="#279e6f" offset="0"/>
   <stop stop-color="#2ba06f" offset="0.04"/>
   <stop stop-color="#53b26c" offset="0.46"/>
   <stop stop-color="#6bbd6a" offset="0.8"/>
   <stop stop-color="#74c169" offset="1"/>
  </linearGradient>
 </defs>
 <title>Artboard 1</title>
 <g>
  <title>Layer 1</title>
  <path id="svg_1" stroke-width="0.2px" stroke-miterlimit="10" stroke="#fff" fill="#2a5ca6" d="m37.45,3.48a2.69,2.69 0 0 1 -0.75,2a2.91,2.91 0 0 1 -2.2,0.89a3,3 0 0 1 -2.21,-0.9a3,3 0 0 1 -0.91,-2.24a3,3 0 0 1 0.91,-2.23a3,3 0 0 1 2.21,-0.9a3,3 0 0 1 1.23,0.25a2.54,2.54 0 0 1 0.94,0.67l-0.53,0.53a2,2 0 0 0 -1.64,-0.71a2.28,2.28 0 0 0 -1.64,0.66a2.3,2.3 0 0 0 -0.69,1.73a2.29,2.29 0 0 0 0.69,1.77a2.38,2.38 0 0 0 3.31,0a1.9,1.9 0 0 0 0.51,-1.21l-2.18,0l0,-0.79l2.9,0a2.49,2.49 0 0 1 0.05,0.48z" class="a"/>
  <path id="svg_2" stroke-width="0.2px" stroke-miterlimit="10" stroke="#fff" fill="#2a5ca6" d="m42.06,1l-2.74,0l0,1.9l2.47,0l0,0.72l-2.47,0l0,1.88l2.74,0l0,0.73l-3.51,0l0,-6l3.51,0l0,0.77z" class="a"/>
  <path id="svg_3" stroke-width="0.2px" stroke-miterlimit="10" stroke="#fff" fill="#2a5ca6" d="m45.31,6.23l-0.78,0l0,-5.23l-1.67,0l0,-0.77l4.14,0l0,0.77l-1.69,0l0,5.23z" class="a"/>
  <path id="svg_4" stroke-width="0.2px" stroke-miterlimit="10" stroke="#fff" fill="#2a5ca6" d="m50,6.23l0,-6l0.77,0l0,6l-0.77,0z" class="a"/>
  <path id="svg_5" stroke-width="0.2px" stroke-miterlimit="10" stroke="#fff" fill="#2a5ca6" d="m54.16,6.23l-0.78,0l0,-5.23l-1.67,0l0,-0.77l4.12,0l0,0.77l-1.67,0l0,5.23z" class="a"/>
  <path id="svg_6" stroke-width="0.2px" stroke-miterlimit="10" stroke="#fff" fill="#2a5ca6" d="m63.64,5.46a3.11,3.11 0 0 1 -4.4,0a3.09,3.09 0 0 1 -0.89,-2.23a3.08,3.08 0 0 1 0.89,-2.23a3.1,3.1 0 0 1 4.39,0a3.08,3.08 0 0 1 0.89,2.22a3.08,3.08 0 0 1 -0.88,2.24zm-3.83,-0.46a2.18,2.18 0 0 0 1.63,0.67a2.21,2.21 0 0 0 1.63,-0.67a2.38,2.38 0 0 0 0.66,-1.73a2.37,2.37 0 0 0 -0.66,-1.72a2.21,2.21 0 0 0 -1.63,-0.71a2.18,2.18 0 0 0 -1.63,0.67a2.34,2.34 0 0 0 -0.67,1.72a2.34,2.34 0 0 0 0.67,1.77z" class="a"/>
  <path id="svg_7" stroke-width="0.2px" stroke-miterlimit="10" stroke="#fff" fill="#2a5ca6" d="m65.6,6.23l0,-6l0.94,0l2.92,4.67l0,0l0,-1.15l0,-3.52l0.77,0l0,6l-0.81,0l-3,-4.89l0,0l0,1.16l0,3.73l-0.82,0z" class="a"/>
  <path id="svg_8" fill="#2a5ca6" d="m58.00369,15a4.25,4.25 0 1 0 4.27,4.25a4.19,4.19 0 0 0 -4.27,-4.25zm0,6.83a2.46,2.46 0 0 1 -2.4,-2.58a2.41,2.41 0 1 1 4.8,0a2.46,2.46 0 0 1 -2.4,2.57l0,0.01zm-9.31,-6.83a4.25,4.25 0 1 0 4.27,4.25a4.19,4.19 0 0 0 -4.27,-4.25zm0,6.83a2.46,2.46 0 0 1 -2.4,-2.58a2.41,2.41 0 1 1 4.8,0a2.46,2.46 0 0 1 -2.4,2.57l0,0.01zm-11.08,-5.54l0,1.81l4.32,0a3.82,3.82 0 0 1 -1,2.27a4.44,4.44 0 0 1 -3.34,1.32a4.8,4.8 0 0 1 0,-9.6a4.65,4.65 0 0 1 3.25,1.28l1.3,-1.27a6.31,6.31 0 0 0 -4.53,-1.82a6.7,6.7 0 0 0 -6.7,6.61a6.69,6.69 0 0 0 6.7,6.6a6,6 0 0 0 4.61,-1.85a6,6 0 0 0 1.56,-4.22a5.46,5.46 0 0 0 -0.1,-1.13l-6.07,0zm45.31,1.4a4,4 0 0 0 -3.64,-2.69a4,4 0 0 0 -4,4.25a4.16,4.16 0 0 0 4.22,4.25a4.23,4.23 0 0 0 3.54,-1.88l-1.45,-1a2.42,2.42 0 0 1 -2.09,1.18a2.16,2.16 0 0 1 -2.06,-1.29l5.68,-2.35l-0.2,-0.47zm-5.8,1.42a2.33,2.33 0 0 1 2.22,-2.48a1.65,1.65 0 0 1 1.58,0.9l-3.8,1.58zm-4.62,4.12l1.86,0l0,-12.5l-1.86,0l0,12.5zm-3.07,-7.29l-0.06,0a2.94,2.94 0 0 0 -2.24,-0.94a4.25,4.25 0 0 0 0,8.5a2.91,2.91 0 0 0 2.24,-1l0.06,0l0,0.61c0,1.63 -0.87,2.49 -2.27,2.49a2.35,2.35 0 0 1 -2.14,-1.51l-1.63,0.68a4.07,4.07 0 0 0 3.77,2.51c2.19,0 4.05,-1.29 4.05,-4.43l0,-7.61l-1.78,0l0,0.7zm-2.14,5.88a2.44,2.44 0 0 1 -2.37,-2.56a2.47,2.47 0 0 1 2.37,-2.6a2.4,2.4 0 0 1 2.27,2.6a2.38,2.38 0 0 1 -2.27,2.56zm24.38,-11.09l-4.47,0l0,12.5l1.87,0l0,-4.73l2.6,0a4,4 0 0 0 4.1,-3.88a4,4 0 0 0 -4.1,-3.89zm0,6l-2.6,0l0,-4.26l2.65,0a2.15,2.15 0 1 1 0,4.29l-0.05,-0.03zm11.58,-1.73a3.51,3.51 0 0 0 -3.33,1.92l1.66,0.69a1.77,1.77 0 0 1 1.71,-0.92a1.8,1.8 0 0 1 2,1.61l0,0.13a4.18,4.18 0 0 0 -2,-0.48c-1.78,0 -3.6,1 -3.6,2.81a2.89,2.89 0 0 0 3.1,2.75a2.62,2.62 0 0 0 2.38,-1.22l0.07,0l0,1l1.8,0l0,-4.87c0.01,-2.22 -1.65,-3.42 -3.79,-3.42zm-0.22,6.85c-0.61,0 -1.47,-0.3 -1.47,-1.06c0,-1 1.07,-1.33 2,-1.33a3.26,3.26 0 0 1 1.71,0.42a2.26,2.26 0 0 1 -2.24,1.93l0,0.04zm10.58,-6.57l-2.14,5.42l-0.06,0l-2.22,-5.42l-2,0l3.33,7.57l-1.91,4.15l1.94,0l5.14,-11.79l-2.08,0.07zm-16.77,7.95l1.87,0l0,-12.5l-1.87,0l0,12.5z" class="b"/>
  <path id="svg_9" fill="#5bc9f4" d="m0.46,0.78a2,2 0 0 0 -0.46,1.41l0,22.09a2,2 0 0 0 0.46,1.41l0.08,0.07l12.37,-12.38l0,-0.29l-12.37,-12.38l-0.08,0.07z" class="c"/>
  <path id="svg_10" fill="url(#a)" d="m17,17.51l-4.13,-4.13l0,-0.29l4.13,-4.09l0.1,0l4.9,2.79c1.4,0.8 1.4,2.09 0,2.89l-4.88,2.77l-0.12,0.06z" class="d"/>
  <path id="svg_11" fill="url(#b)" d="m17.14,17.45l-4.23,-4.22l-12.45,12.46a1.65,1.65 0 0 0 2.08,0.06l14.6,-8.3" class="Graphic-Style-2"/>
  <path id="svg_12" fill="url(#c)" d="m17.14,9l-14.6,-8.28a1.62,1.62 0 0 0 -2.08,0.06l12.45,12.45l4.23,-4.23z" class="e"/>
 </g>
</svg>